# xmcd
#
# Track frame offsets:
#	150
#	13913
#	27521
#	39649
#	64115
#	75505
#	88520
#	99987
#	111288
#	120737
#	136424
#	145593
#	165400
#	181054
#	187570
#	202501
#	221721
#	241411
#	261346
#	276220
#
# Disc length: 3930 seconds
#
# Revision: 0
# Processed by: cddbd v1.5.2PL0 Copyright (c) Steve Scherf et al.
# Submitted via: dBpowerAMP V4.0
#
DISCID=0a0f5814
DTITLE=Various Artist - that loving feeling-a love supreme-volume 3
DYEAR=1900
DGENRE=
TTITLE0=misty
TTITLE1=i've grown accustomed to her face
TTITLE2=unforgettable
TTITLE3=i cant make you love me
TTITLE4=blue skies
TTITLE5=you go to my head
TTITLE6=walkin after midnight
TTITLE7=smoke gets in your eyes
TTITLE8=let there be love
TTITLE9=fly me to the moon
TTITLE10=everybody loves somebody
TTITLE11=something inside so strong
TTITLE12=always a woman to me
TTITLE13=have i told you lately that i love you
TTITLE14=baby can i hold you
TTITLE15=love is strange
TTITLE16=flower duet (from lakme)
TTITLE17=i say a little prayer
TTITLE18=angel of the morning
TTITLE19=you send me
EXTD=
EXTT0=
EXTT1=
EXTT2=
EXTT3=
EXTT4=
EXTT5=
EXTT6=
EXTT7=
EXTT8=
EXTT9=
EXTT10=
EXTT11=
EXTT12=
EXTT13=
EXTT14=
EXTT15=
EXTT16=
EXTT17=
EXTT18=
EXTT19=
PLAYORDER=
